# Created by Kenney (www.kenney.nl)

mtllib corridor-intersection.mtl

g corridor-intersection

v 1.325 2.025 -1.325 1 1 1
v 1.1 2.025 -2 1 1 1
v 1.475 3.0375 -1.475 1 1 1
v 1.3 3.0375 -2 1 1 1
v 1.4 4.05 -1.4 1 1 1
v 2 4.05 -1.2 1 1 1
v 2 3.0375 -1.3 1 1 1
v 1.25 -1.705543E-14 -1.25 1 1 1
v 1.475 1.0125 -1.475 1 1 1
v 2 -1.698858E-14 -1 1 1 1
v 2 1.0125 -1.3 1 1 1
v 0.9999999 -1.707772E-14 -2 1 1 1
v 1.3 1.0125 -2 1 1 1
v 1.2 4.05 -2 1 1 1
v 2 4.05 -2 1 1 1
v 2 -1.707772E-14 -2 1 1 1
v 2 2.025 -1.1 1 1 1
v -1.325 2.025 -1.325 1 1 1
v -2 2.025 -1.1 1 1 1
v -1.475 3.0375 -1.475 1 1 1
v -2 3.0375 -1.3 1 1 1
v -1.4 4.05 -1.4 1 1 1
v -1.2 4.05 -2 1 1 1
v -1.3 3.0375 -2 1 1 1
v -1.25 -1.705543E-14 -1.25 1 1 1
v -1.475 1.0125 -1.475 1 1 1
v -1 -1.698858E-14 -2 1 1 1
v -1.3 1.0125 -2 1 1 1
v -2 -1.707772E-14 -1 1 1 1
v -2 1.0125 -1.3 1 1 1
v -2 4.05 -1.2 1 1 1
v -2 4.05 -2 1 1 1
v -2 -1.707772E-14 -2 1 1 1
v -1.1 2.025 -2 1 1 1
v -1.325 2.025 1.325 1 1 1
v -1.1 2.025 2 1 1 1
v -1.475 3.0375 1.475 1 1 1
v -1.3 3.0375 2 1 1 1
v -1.4 4.05 1.4 1 1 1
v -2 4.05 1.2 1 1 1
v -2 3.0375 1.3 1 1 1
v -1.25 -1.705543E-14 1.25 1 1 1
v -1.475 1.0125 1.475 1 1 1
v -2 -1.698858E-14 0.9999999 1 1 1
v -2 1.0125 1.3 1 1 1
v -1 -1.707772E-14 2 1 1 1
v -1.3 1.0125 2 1 1 1
v -1.2 4.05 2 1 1 1
v -2 4.05 2 1 1 1
v -2 -1.707772E-14 2 1 1 1
v -2 2.025 1.1 1 1 1
v 1.325 2.025 1.325 1 1 1
v 2 2.025 1.1 1 1 1
v 1.475 3.0375 1.475 1 1 1
v 2 3.0375 1.3 1 1 1
v 1.4 4.05 1.4 1 1 1
v 1.2 4.05 2 1 1 1
v 1.3 3.0375 2 1 1 1
v 1.25 -1.705543E-14 1.25 1 1 1
v 1.475 1.0125 1.475 1 1 1
v 1 -1.698858E-14 2 1 1 1
v 1.3 1.0125 2 1 1 1
v 2 -1.707772E-14 1 1 1 1
v 2 1.0125 1.3 1 1 1
v 2 4.05 1.2 1 1 1
v 2 4.05 2 1 1 1
v 2 -1.707772E-14 2 1 1 1
v 1.1 2.025 2 1 1 1
v 2 0 -2 1 1 1
v 2 0 2 1 1 1
v -2 0 -2 1 1 1
v -2 0 2 1 1 1

vn -0.7071068 0 0.7071069
vn -0.9486834 0 0.3162279
vn -0.7060958 0.05345594 0.7060959
vn -0.9476258 0.04720422 0.3158754
vn 0.7060958 -0.05345594 -0.7060959
vn 0.9486834 0 -0.3162279
vn 0.7071068 0 -0.7071069
vn 0.9476258 -0.04720422 -0.3158754
vn -0.7032586 -0.1041865 0.7032587
vn -0.3148486 -0.0932885 0.9445463
vn -0.3158752 0.04720422 0.9476259
vn 0.3148486 0.0932885 -0.9445463
vn 0.7032586 0.1041865 -0.7032587
vn 0.3158752 -0.04720422 -0.9476259
vn -0.6745785 0.2998127 0.6745786
vn -0.7061167 0.05290158 0.7061168
vn -0.3044294 0.270604 0.9132888
vn -0.315887 0.04640368 0.9476615
vn 0.3044294 -0.270604 -0.9132888
vn 0.7061167 -0.05290158 -0.7061168
vn 0.6745785 -0.2998127 -0.6745786
vn 0.315887 -0.04640368 -0.9476615
vn -0.9132887 0.270604 0.3044297
vn -0.9476614 0.04640368 0.3158873
vn 0.9476614 -0.04640368 -0.3158873
vn 0.9132887 -0.270604 -0.3044297
vn 0 1 0
vn 0 -1 0
vn 1 0 -1.192093E-07
vn -1 0 1.192093E-07
vn -0.3162277 0 0.9486835
vn 0.3162277 0 -0.9486835
vn -0.9445462 -0.0932885 0.3148488
vn 0.9445462 0.0932885 -0.3148488
vn -1.192093E-07 0 -1
vn 1.192093E-07 0 1
vn 0.7071068 0 0.7071068
vn 0.3162278 0 0.9486833
vn 0.7060958 0.05345594 0.7060958
vn 0.3158753 0.04720422 0.9476258
vn -0.7060958 -0.05345594 -0.7060958
vn -0.3162278 0 -0.9486833
vn -0.7071068 0 -0.7071068
vn -0.3158753 -0.04720422 -0.9476258
vn 0.7032586 -0.1041865 0.7032586
vn 0.9445462 -0.0932885 0.3148487
vn 0.9476258 0.04720422 0.3158753
vn -0.9445462 0.0932885 -0.3148487
vn -0.7032586 0.1041865 -0.7032586
vn -0.9476258 -0.04720422 -0.3158753
vn 0.6745785 0.2998127 0.6745785
vn 0.7061167 0.05290158 0.7061167
vn 0.9132886 0.270604 0.3044295
vn 0.9476613 0.04640368 0.3158871
vn -0.9132886 -0.270604 -0.3044295
vn -0.7061167 -0.05290158 -0.7061167
vn -0.6745785 -0.2998127 -0.6745785
vn -0.9476613 -0.04640368 -0.3158871
vn 0.3044295 0.270604 0.9132886
vn 0.3158871 0.04640368 0.9476613
vn -0.3158871 -0.04640368 -0.9476613
vn -0.3044295 -0.270604 -0.9132886
vn -3.314016E-14 0 -1
vn 3.314016E-14 0 1
vn 0.9486833 0 0.3162278
vn -0.9486833 0 -0.3162278
vn 0.3148487 -0.0932885 0.9445462
vn -0.3148487 0.0932885 -0.9445462
vn -1 0 3.314016E-14
vn 1 0 -3.314016E-14
vn 0.7071069 0 -0.7071068
vn 0.9486835 0 -0.3162277
vn 0.7060959 0.05345594 -0.7060958
vn 0.9476259 0.04720422 -0.3158752
vn -0.7060959 -0.05345594 0.7060958
vn -0.9486835 0 0.3162277
vn -0.7071069 0 0.7071068
vn -0.9476259 -0.04720422 0.3158752
vn 0.7032587 -0.1041865 -0.7032586
vn 0.3148489 -0.0932885 -0.9445462
vn 0.3158754 0.04720422 -0.9476258
vn -0.3148489 0.0932885 0.9445462
vn -0.7032587 0.1041865 0.7032586
vn -0.3158754 -0.04720422 0.9476258
vn 0.6745787 0.2998127 -0.6745785
vn 0.7061168 0.05290158 -0.7061167
vn 0.3044297 0.270604 -0.9132887
vn 0.3158873 0.04640368 -0.9476614
vn -0.3044297 -0.270604 0.9132887
vn -0.7061168 -0.05290158 0.7061167
vn -0.6745787 -0.2998127 0.6745785
vn -0.3158873 -0.04640368 0.9476614
vn 0.9132888 0.270604 -0.3044294
vn 0.9476615 0.04640368 -0.315887
vn -0.9476615 -0.04640368 0.315887
vn -0.9132888 -0.270604 0.3044294
vn -1 0 -1.192093E-07
vn 1 0 1.192093E-07
vn 0.3162279 0 -0.9486834
vn -0.3162279 0 0.9486834
vn 0.9445463 -0.0932885 -0.3148486
vn -0.9445463 0.0932885 0.3148486
vn -1.192093E-07 0 1
vn 1.192093E-07 0 -1
vn -0.7060958 0.05345594 -0.7060958
vn -0.3158753 0.04720422 -0.9476258
vn 0.7060958 -0.05345594 0.7060958
vn 0.3158753 -0.04720422 0.9476258
vn -0.7032586 -0.1041865 -0.7032586
vn -0.9445462 -0.0932885 -0.3148487
vn -0.9476258 0.04720422 -0.3158753
vn 0.9445462 0.0932885 0.3148487
vn 0.7032586 0.1041865 0.7032586
vn 0.9476258 -0.04720422 0.3158753
vn -0.6745785 0.2998127 -0.6745785
vn -0.7061167 0.05290158 -0.7061167
vn -0.9132886 0.270604 -0.3044295
vn -0.9476613 0.04640368 -0.3158871
vn 0.9132886 -0.270604 0.3044295
vn 0.7061167 -0.05290158 0.7061167
vn 0.6745785 -0.2998127 0.6745785
vn 0.9476613 -0.04640368 0.3158871
vn -0.3044295 0.270604 -0.9132886
vn -0.3158871 0.04640368 -0.9476613
vn 0.3158871 -0.04640368 0.9476613
vn 0.3044295 -0.270604 0.9132886
vn 0 0 1
vn 0 0 -1
vn -0.3148487 -0.0932885 -0.9445462
vn 0.3148487 0.0932885 0.9445462
vn 1 0 0
vn -1 0 0

vt 0.46875 0.125
vt 0.46875 0.175
vt 0.46875 0.225
vt 0.46875 0.025
vt 0.46875 0.075
vt 0.005 0.755
vt 0.005 0.995
vt 0.245 0.755
vt 0.245 0.995

usemtl colormap

f 3/2/3 2/1/2 1/1/1
f 2/1/2 3/2/3 4/2/4
f 1/1/7 2/1/6 3/2/5
f 4/2/8 3/2/5 2/1/6
f 3/2/3 6/3/10 5/3/9
f 6/3/10 3/2/3 7/2/11
f 5/3/13 6/3/12 3/2/5
f 7/2/14 3/2/5 6/3/12
f 10/4/17 9/5/16 8/4/15
f 9/5/16 10/4/17 11/5/18
f 8/4/21 9/5/20 10/4/19
f 11/5/22 10/4/19 9/5/20
f 8/4/15 13/5/24 12/4/23
f 13/5/24 8/4/15 9/5/16
f 12/4/26 13/5/25 8/4/21
f 9/5/20 8/4/21 13/5/25
f 5/3/27 15/3/27 14/3/27
f 15/3/27 5/3/27 6/3/27
f 14/3/28 15/3/28 5/3/28
f 6/3/28 5/3/28 15/3/28
f 16/4/29 11/5/29 10/4/29
f 11/5/29 16/4/29 15/3/29
f 11/5/29 15/3/29 17/1/29
f 17/1/29 15/3/29 7/2/29
f 7/2/29 15/3/29 6/3/29
f 10/4/30 11/5/30 16/4/30
f 15/3/30 16/4/30 11/5/30
f 17/1/30 15/3/30 11/5/30
f 7/2/30 15/3/30 17/1/30
f 6/3/30 15/3/30 7/2/30
f 9/5/16 17/1/31 1/1/1
f 17/1/31 9/5/16 11/5/18
f 1/1/7 17/1/32 9/5/20
f 11/5/22 9/5/20 17/1/32
f 5/3/9 4/2/4 3/2/3
f 4/2/4 5/3/9 14/3/33
f 3/2/5 4/2/8 5/3/13
f 14/3/34 5/3/13 4/2/8
f 1/1/1 13/5/24 9/5/16
f 13/5/24 1/1/1 2/1/2
f 9/5/20 13/5/25 1/1/7
f 2/1/6 1/1/7 13/5/25
f 10/4/28 12/4/28 16/4/28
f 12/4/28 10/4/28 8/4/28
f 16/4/27 12/4/27 10/4/27
f 8/4/27 10/4/27 12/4/27
f 15/3/35 4/2/35 14/3/35
f 4/2/35 15/3/35 13/5/35
f 13/5/35 2/1/35 4/2/35
f 16/4/35 13/5/35 15/3/35
f 13/5/35 16/4/35 12/4/35
f 14/3/36 4/2/36 15/3/36
f 13/5/36 15/3/36 4/2/36
f 4/2/36 2/1/36 13/5/36
f 15/3/36 13/5/36 16/4/36
f 12/4/36 16/4/36 13/5/36
f 17/1/31 3/2/3 1/1/1
f 3/2/3 17/1/31 7/2/11
f 1/1/7 3/2/5 17/1/32
f 7/2/14 17/1/32 3/2/5
f 20/2/39 19/1/38 18/1/37
f 19/1/38 20/2/39 21/2/40
f 18/1/43 19/1/42 20/2/41
f 21/2/44 20/2/41 19/1/42
f 20/2/39 23/3/46 22/3/45
f 23/3/46 20/2/39 24/2/47
f 22/3/49 23/3/48 20/2/41
f 24/2/50 20/2/41 23/3/48
f 27/4/53 26/5/52 25/4/51
f 26/5/52 27/4/53 28/5/54
f 25/4/57 26/5/56 27/4/55
f 28/5/58 27/4/55 26/5/56
f 25/4/51 30/5/60 29/4/59
f 30/5/60 25/4/51 26/5/52
f 29/4/62 30/5/61 25/4/57
f 26/5/56 25/4/57 30/5/61
f 22/3/27 32/3/27 31/3/27
f 32/3/27 22/3/27 23/3/27
f 31/3/28 32/3/28 22/3/28
f 23/3/28 22/3/28 32/3/28
f 33/4/63 28/5/63 27/4/63
f 28/5/63 33/4/63 32/3/63
f 28/5/63 32/3/63 34/1/63
f 34/1/63 32/3/63 24/2/63
f 24/2/63 32/3/63 23/3/63
f 27/4/64 28/5/64 33/4/64
f 32/3/64 33/4/64 28/5/64
f 34/1/64 32/3/64 28/5/64
f 24/2/64 32/3/64 34/1/64
f 23/3/64 32/3/64 24/2/64
f 26/5/52 34/1/65 18/1/37
f 34/1/65 26/5/52 28/5/54
f 18/1/43 34/1/66 26/5/56
f 28/5/58 26/5/56 34/1/66
f 22/3/45 21/2/40 20/2/39
f 21/2/40 22/3/45 31/3/67
f 20/2/41 21/2/44 22/3/49
f 31/3/68 22/3/49 21/2/44
f 18/1/37 30/5/60 26/5/52
f 30/5/60 18/1/37 19/1/38
f 26/5/56 30/5/61 18/1/43
f 19/1/42 18/1/43 30/5/61
f 27/4/28 29/4/28 33/4/28
f 29/4/28 27/4/28 25/4/28
f 33/4/27 29/4/27 27/4/27
f 25/4/27 27/4/27 29/4/27
f 32/3/69 21/2/69 31/3/69
f 21/2/69 32/3/69 30/5/69
f 30/5/69 19/1/69 21/2/69
f 33/4/69 30/5/69 32/3/69
f 30/5/69 33/4/69 29/4/69
f 31/3/70 21/2/70 32/3/70
f 30/5/70 32/3/70 21/2/70
f 21/2/70 19/1/70 30/5/70
f 32/3/70 30/5/70 33/4/70
f 29/4/70 33/4/70 30/5/70
f 34/1/65 20/2/39 18/1/37
f 20/2/39 34/1/65 24/2/47
f 18/1/43 20/2/41 34/1/66
f 24/2/50 34/1/66 20/2/41
f 37/2/73 36/1/72 35/1/71
f 36/1/72 37/2/73 38/2/74
f 35/1/77 36/1/76 37/2/75
f 38/2/78 37/2/75 36/1/76
f 37/2/73 40/3/80 39/3/79
f 40/3/80 37/2/73 41/2/81
f 39/3/83 40/3/82 37/2/75
f 41/2/84 37/2/75 40/3/82
f 44/4/87 43/5/86 42/4/85
f 43/5/86 44/4/87 45/5/88
f 42/4/91 43/5/90 44/4/89
f 45/5/92 44/4/89 43/5/90
f 42/4/85 47/5/94 46/4/93
f 47/5/94 42/4/85 43/5/86
f 46/4/96 47/5/95 42/4/91
f 43/5/90 42/4/91 47/5/95
f 39/3/27 49/3/27 48/3/27
f 49/3/27 39/3/27 40/3/27
f 48/3/28 49/3/28 39/3/28
f 40/3/28 39/3/28 49/3/28
f 50/4/97 45/5/97 44/4/97
f 45/5/97 50/4/97 49/3/97
f 45/5/97 49/3/97 51/1/97
f 51/1/97 49/3/97 41/2/97
f 41/2/97 49/3/97 40/3/97
f 44/4/98 45/5/98 50/4/98
f 49/3/98 50/4/98 45/5/98
f 51/1/98 49/3/98 45/5/98
f 41/2/98 49/3/98 51/1/98
f 40/3/98 49/3/98 41/2/98
f 43/5/86 51/1/99 35/1/71
f 51/1/99 43/5/86 45/5/88
f 35/1/77 51/1/100 43/5/90
f 45/5/92 43/5/90 51/1/100
f 39/3/79 38/2/74 37/2/73
f 38/2/74 39/3/79 48/3/101
f 37/2/75 38/2/78 39/3/83
f 48/3/102 39/3/83 38/2/78
f 35/1/71 47/5/94 43/5/86
f 47/5/94 35/1/71 36/1/72
f 43/5/90 47/5/95 35/1/77
f 36/1/76 35/1/77 47/5/95
f 44/4/28 46/4/28 50/4/28
f 46/4/28 44/4/28 42/4/28
f 50/4/27 46/4/27 44/4/27
f 42/4/27 44/4/27 46/4/27
f 49/3/103 38/2/103 48/3/103
f 38/2/103 49/3/103 47/5/103
f 47/5/103 36/1/103 38/2/103
f 50/4/103 47/5/103 49/3/103
f 47/5/103 50/4/103 46/4/103
f 48/3/104 38/2/104 49/3/104
f 47/5/104 49/3/104 38/2/104
f 38/2/104 36/1/104 47/5/104
f 49/3/104 47/5/104 50/4/104
f 46/4/104 50/4/104 47/5/104
f 51/1/99 37/2/73 35/1/71
f 37/2/73 51/1/99 41/2/81
f 35/1/77 37/2/75 51/1/100
f 41/2/84 51/1/100 37/2/75
f 54/2/105 53/1/42 52/1/43
f 53/1/42 54/2/105 55/2/106
f 52/1/37 53/1/38 54/2/107
f 55/2/108 54/2/107 53/1/38
f 54/2/105 57/3/110 56/3/109
f 57/3/110 54/2/105 58/2/111
f 56/3/113 57/3/112 54/2/107
f 58/2/114 54/2/107 57/3/112
f 61/4/117 60/5/116 59/4/115
f 60/5/116 61/4/117 62/5/118
f 59/4/121 60/5/120 61/4/119
f 62/5/122 61/4/119 60/5/120
f 59/4/115 64/5/124 63/4/123
f 64/5/124 59/4/115 60/5/116
f 63/4/126 64/5/125 59/4/121
f 60/5/120 59/4/121 64/5/125
f 56/3/27 66/3/27 65/3/27
f 66/3/27 56/3/27 57/3/27
f 65/3/28 66/3/28 56/3/28
f 57/3/28 56/3/28 66/3/28
f 67/4/127 62/5/127 61/4/127
f 62/5/127 67/4/127 66/3/127
f 62/5/127 66/3/127 68/1/127
f 68/1/127 66/3/127 58/2/127
f 58/2/127 66/3/127 57/3/127
f 61/4/128 62/5/128 67/4/128
f 66/3/128 67/4/128 62/5/128
f 68/1/128 66/3/128 62/5/128
f 58/2/128 66/3/128 68/1/128
f 57/3/128 66/3/128 58/2/128
f 60/5/116 68/1/66 52/1/43
f 68/1/66 60/5/116 62/5/118
f 52/1/37 68/1/65 60/5/120
f 62/5/122 60/5/120 68/1/65
f 56/3/109 55/2/106 54/2/105
f 55/2/106 56/3/109 65/3/129
f 54/2/107 55/2/108 56/3/113
f 65/3/130 56/3/113 55/2/108
f 52/1/43 64/5/124 60/5/116
f 64/5/124 52/1/43 53/1/42
f 60/5/120 64/5/125 52/1/37
f 53/1/38 52/1/37 64/5/125
f 61/4/28 63/4/28 67/4/28
f 63/4/28 61/4/28 59/4/28
f 67/4/27 63/4/27 61/4/27
f 59/4/27 61/4/27 63/4/27
f 66/3/131 55/2/131 65/3/131
f 55/2/131 66/3/131 64/5/131
f 64/5/131 53/1/131 55/2/131
f 67/4/131 64/5/131 66/3/131
f 64/5/131 67/4/131 63/4/131
f 65/3/132 55/2/132 66/3/132
f 64/5/132 66/3/132 55/2/132
f 55/2/132 53/1/132 64/5/132
f 66/3/132 64/5/132 67/4/132
f 63/4/132 67/4/132 64/5/132
f 68/1/66 54/2/105 52/1/43
f 54/2/105 68/1/66 58/2/111
f 52/1/37 54/2/107 68/1/65
f 58/2/114 68/1/65 54/2/107
f 71/8/27 70/7/27 69/6/27
f 70/7/27 71/8/27 72/9/27
f 69/6/28 70/7/28 71/8/28
f 72/9/28 71/8/28 70/7/28

g corridor-intersection




usemtl colormap

f 3/2/3 2/1/2 1/1/1
f 2/1/2 3/2/3 4/2/4
f 1/1/7 2/1/6 3/2/5
f 4/2/8 3/2/5 2/1/6
f 3/2/3 6/3/10 5/3/9
f 6/3/10 3/2/3 7/2/11
f 5/3/13 6/3/12 3/2/5
f 7/2/14 3/2/5 6/3/12
f 10/4/17 9/5/16 8/4/15
f 9/5/16 10/4/17 11/5/18
f 8/4/21 9/5/20 10/4/19
f 11/5/22 10/4/19 9/5/20
f 8/4/15 13/5/24 12/4/23
f 13/5/24 8/4/15 9/5/16
f 12/4/26 13/5/25 8/4/21
f 9/5/20 8/4/21 13/5/25
f 5/3/27 15/3/27 14/3/27
f 15/3/27 5/3/27 6/3/27
f 14/3/28 15/3/28 5/3/28
f 6/3/28 5/3/28 15/3/28
f 16/4/29 11/5/29 10/4/29
f 11/5/29 16/4/29 15/3/29
f 11/5/29 15/3/29 17/1/29
f 17/1/29 15/3/29 7/2/29
f 7/2/29 15/3/29 6/3/29
f 10/4/30 11/5/30 16/4/30
f 15/3/30 16/4/30 11/5/30
f 17/1/30 15/3/30 11/5/30
f 7/2/30 15/3/30 17/1/30
f 6/3/30 15/3/30 7/2/30
f 9/5/16 17/1/31 1/1/1
f 17/1/31 9/5/16 11/5/18
f 1/1/7 17/1/32 9/5/20
f 11/5/22 9/5/20 17/1/32
f 5/3/9 4/2/4 3/2/3
f 4/2/4 5/3/9 14/3/33
f 3/2/5 4/2/8 5/3/13
f 14/3/34 5/3/13 4/2/8
f 1/1/1 13/5/24 9/5/16
f 13/5/24 1/1/1 2/1/2
f 9/5/20 13/5/25 1/1/7
f 2/1/6 1/1/7 13/5/25
f 10/4/28 12/4/28 16/4/28
f 12/4/28 10/4/28 8/4/28
f 16/4/27 12/4/27 10/4/27
f 8/4/27 10/4/27 12/4/27
f 15/3/35 4/2/35 14/3/35
f 4/2/35 15/3/35 13/5/35
f 13/5/35 2/1/35 4/2/35
f 16/4/35 13/5/35 15/3/35
f 13/5/35 16/4/35 12/4/35
f 14/3/36 4/2/36 15/3/36
f 13/5/36 15/3/36 4/2/36
f 4/2/36 2/1/36 13/5/36
f 15/3/36 13/5/36 16/4/36
f 12/4/36 16/4/36 13/5/36
f 17/1/31 3/2/3 1/1/1
f 3/2/3 17/1/31 7/2/11
f 1/1/7 3/2/5 17/1/32
f 7/2/14 17/1/32 3/2/5
f 20/2/39 19/1/38 18/1/37
f 19/1/38 20/2/39 21/2/40
f 18/1/43 19/1/42 20/2/41
f 21/2/44 20/2/41 19/1/42
f 20/2/39 23/3/46 22/3/45
f 23/3/46 20/2/39 24/2/47
f 22/3/49 23/3/48 20/2/41
f 24/2/50 20/2/41 23/3/48
f 27/4/53 26/5/52 25/4/51
f 26/5/52 27/4/53 28/5/54
f 25/4/57 26/5/56 27/4/55
f 28/5/58 27/4/55 26/5/56
f 25/4/51 30/5/60 29/4/59
f 30/5/60 25/4/51 26/5/52
f 29/4/62 30/5/61 25/4/57
f 26/5/56 25/4/57 30/5/61
f 22/3/27 32/3/27 31/3/27
f 32/3/27 22/3/27 23/3/27
f 31/3/28 32/3/28 22/3/28
f 23/3/28 22/3/28 32/3/28
f 33/4/63 28/5/63 27/4/63
f 28/5/63 33/4/63 32/3/63
f 28/5/63 32/3/63 34/1/63
f 34/1/63 32/3/63 24/2/63
f 24/2/63 32/3/63 23/3/63
f 27/4/64 28/5/64 33/4/64
f 32/3/64 33/4/64 28/5/64
f 34/1/64 32/3/64 28/5/64
f 24/2/64 32/3/64 34/1/64
f 23/3/64 32/3/64 24/2/64
f 26/5/52 34/1/65 18/1/37
f 34/1/65 26/5/52 28/5/54
f 18/1/43 34/1/66 26/5/56
f 28/5/58 26/5/56 34/1/66
f 22/3/45 21/2/40 20/2/39
f 21/2/40 22/3/45 31/3/67
f 20/2/41 21/2/44 22/3/49
f 31/3/68 22/3/49 21/2/44
f 18/1/37 30/5/60 26/5/52
f 30/5/60 18/1/37 19/1/38
f 26/5/56 30/5/61 18/1/43
f 19/1/42 18/1/43 30/5/61
f 27/4/28 29/4/28 33/4/28
f 29/4/28 27/4/28 25/4/28
f 33/4/27 29/4/27 27/4/27
f 25/4/27 27/4/27 29/4/27
f 32/3/69 21/2/69 31/3/69
f 21/2/69 32/3/69 30/5/69
f 30/5/69 19/1/69 21/2/69
f 33/4/69 30/5/69 32/3/69
f 30/5/69 33/4/69 29/4/69
f 31/3/70 21/2/70 32/3/70
f 30/5/70 32/3/70 21/2/70
f 21/2/70 19/1/70 30/5/70
f 32/3/70 30/5/70 33/4/70
f 29/4/70 33/4/70 30/5/70
f 34/1/65 20/2/39 18/1/37
f 20/2/39 34/1/65 24/2/47
f 18/1/43 20/2/41 34/1/66
f 24/2/50 34/1/66 20/2/41
f 37/2/73 36/1/72 35/1/71
f 36/1/72 37/2/73 38/2/74
f 35/1/77 36/1/76 37/2/75
f 38/2/78 37/2/75 36/1/76
f 37/2/73 40/3/80 39/3/79
f 40/3/80 37/2/73 41/2/81
f 39/3/83 40/3/82 37/2/75
f 41/2/84 37/2/75 40/3/82
f 44/4/87 43/5/86 42/4/85
f 43/5/86 44/4/87 45/5/88
f 42/4/91 43/5/90 44/4/89
f 45/5/92 44/4/89 43/5/90
f 42/4/85 47/5/94 46/4/93
f 47/5/94 42/4/85 43/5/86
f 46/4/96 47/5/95 42/4/91
f 43/5/90 42/4/91 47/5/95
f 39/3/27 49/3/27 48/3/27
f 49/3/27 39/3/27 40/3/27
f 48/3/28 49/3/28 39/3/28
f 40/3/28 39/3/28 49/3/28
f 50/4/97 45/5/97 44/4/97
f 45/5/97 50/4/97 49/3/97
f 45/5/97 49/3/97 51/1/97
f 51/1/97 49/3/97 41/2/97
f 41/2/97 49/3/97 40/3/97
f 44/4/98 45/5/98 50/4/98
f 49/3/98 50/4/98 45/5/98
f 51/1/98 49/3/98 45/5/98
f 41/2/98 49/3/98 51/1/98
f 40/3/98 49/3/98 41/2/98
f 43/5/86 51/1/99 35/1/71
f 51/1/99 43/5/86 45/5/88
f 35/1/77 51/1/100 43/5/90
f 45/5/92 43/5/90 51/1/100
f 39/3/79 38/2/74 37/2/73
f 38/2/74 39/3/79 48/3/101
f 37/2/75 38/2/78 39/3/83
f 48/3/102 39/3/83 38/2/78
f 35/1/71 47/5/94 43/5/86
f 47/5/94 35/1/71 36/1/72
f 43/5/90 47/5/95 35/1/77
f 36/1/76 35/1/77 47/5/95
f 44/4/28 46/4/28 50/4/28
f 46/4/28 44/4/28 42/4/28
f 50/4/27 46/4/27 44/4/27
f 42/4/27 44/4/27 46/4/27
f 49/3/103 38/2/103 48/3/103
f 38/2/103 49/3/103 47/5/103
f 47/5/103 36/1/103 38/2/103
f 50/4/103 47/5/103 49/3/103
f 47/5/103 50/4/103 46/4/103
f 48/3/104 38/2/104 49/3/104
f 47/5/104 49/3/104 38/2/104
f 38/2/104 36/1/104 47/5/104
f 49/3/104 47/5/104 50/4/104
f 46/4/104 50/4/104 47/5/104
f 51/1/99 37/2/73 35/1/71
f 37/2/73 51/1/99 41/2/81
f 35/1/77 37/2/75 51/1/100
f 41/2/84 51/1/100 37/2/75
f 54/2/105 53/1/42 52/1/43
f 53/1/42 54/2/105 55/2/106
f 52/1/37 53/1/38 54/2/107
f 55/2/108 54/2/107 53/1/38
f 54/2/105 57/3/110 56/3/109
f 57/3/110 54/2/105 58/2/111
f 56/3/113 57/3/112 54/2/107
f 58/2/114 54/2/107 57/3/112
f 61/4/117 60/5/116 59/4/115
f 60/5/116 61/4/117 62/5/118
f 59/4/121 60/5/120 61/4/119
f 62/5/122 61/4/119 60/5/120
f 59/4/115 64/5/124 63/4/123
f 64/5/124 59/4/115 60/5/116
f 63/4/126 64/5/125 59/4/121
f 60/5/120 59/4/121 64/5/125
f 56/3/27 66/3/27 65/3/27
f 66/3/27 56/3/27 57/3/27
f 65/3/28 66/3/28 56/3/28
f 57/3/28 56/3/28 66/3/28
f 67/4/127 62/5/127 61/4/127
f 62/5/127 67/4/127 66/3/127
f 62/5/127 66/3/127 68/1/127
f 68/1/127 66/3/127 58/2/127
f 58/2/127 66/3/127 57/3/127
f 61/4/128 62/5/128 67/4/128
f 66/3/128 67/4/128 62/5/128
f 68/1/128 66/3/128 62/5/128
f 58/2/128 66/3/128 68/1/128
f 57/3/128 66/3/128 58/2/128
f 60/5/116 68/1/66 52/1/43
f 68/1/66 60/5/116 62/5/118
f 52/1/37 68/1/65 60/5/120
f 62/5/122 60/5/120 68/1/65
f 56/3/109 55/2/106 54/2/105
f 55/2/106 56/3/109 65/3/129
f 54/2/107 55/2/108 56/3/113
f 65/3/130 56/3/113 55/2/108
f 52/1/43 64/5/124 60/5/116
f 64/5/124 52/1/43 53/1/42
f 60/5/120 64/5/125 52/1/37
f 53/1/38 52/1/37 64/5/125
f 61/4/28 63/4/28 67/4/28
f 63/4/28 61/4/28 59/4/28
f 67/4/27 63/4/27 61/4/27
f 59/4/27 61/4/27 63/4/27
f 66/3/131 55/2/131 65/3/131
f 55/2/131 66/3/131 64/5/131
f 64/5/131 53/1/131 55/2/131
f 67/4/131 64/5/131 66/3/131
f 64/5/131 67/4/131 63/4/131
f 65/3/132 55/2/132 66/3/132
f 64/5/132 66/3/132 55/2/132
f 55/2/132 53/1/132 64/5/132
f 66/3/132 64/5/132 67/4/132
f 63/4/132 67/4/132 64/5/132
f 68/1/66 54/2/105 52/1/43
f 54/2/105 68/1/66 58/2/111
f 52/1/37 54/2/107 68/1/65
f 58/2/114 68/1/65 54/2/107
f 71/8/27 70/7/27 69/6/27
f 70/7/27 71/8/27 72/9/27
f 69/6/28 70/7/28 71/8/28
f 72/9/28 71/8/28 70/7/28

