# Created by Kenney (www.kenney.nl)

mtllib template-wall-corner.mtl

g template-wall-corner

v -0.675 2.025 -0.675 1 1 1
v 0 2.025 -0.9 1 1 1
v -0.525 3.0375 -0.525 1 1 1
v 0 3.0375 -0.7 1 1 1
v -0.6 4.05 -0.6 1 1 1
v -0.8 4.05 0 1 1 1
v -0.7 3.0375 0 1 1 1
v -0.75 -1.705543E-14 -0.75 1 1 1
v -0.525 1.0125 -0.525 1 1 1
v -1 -1.698858E-14 0 1 1 1
v -0.7 1.0125 0 1 1 1
v 0 -1.707772E-14 -1 1 1 1
v 0 1.0125 -0.7 1 1 1
v 0 4.05 -0.8 1 1 1
v 0 4.05 0 1 1 1
v 0 -1.707772E-14 0 1 1 1
v -0.9 2.025 0 1 1 1

vn -0.7071068 0 -0.7071068
vn -0.3162278 0 -0.9486833
vn -0.7060958 0.05345594 -0.7060958
vn -0.3158753 0.04720422 -0.9476258
vn 0.7060958 -0.05345594 0.7060958
vn 0.3162278 0 0.9486833
vn 0.7071068 0 0.7071068
vn 0.3158753 -0.04720422 0.9476258
vn -0.7032586 -0.1041865 -0.7032586
vn -0.9445462 -0.0932885 -0.3148487
vn -0.9476258 0.04720422 -0.3158753
vn 0.9445462 0.0932885 0.3148487
vn 0.7032586 0.1041865 0.7032586
vn 0.9476258 -0.04720422 0.3158753
vn -0.6745785 0.2998127 -0.6745785
vn -0.7061167 0.05290158 -0.7061167
vn -0.9132886 0.270604 -0.3044295
vn -0.9476613 0.04640368 -0.3158871
vn 0.9132886 -0.270604 0.3044295
vn 0.7061167 -0.05290158 0.7061167
vn 0.6745785 -0.2998127 0.6745785
vn 0.9476613 -0.04640368 0.3158871
vn -0.3044295 0.270604 -0.9132886
vn -0.3158871 0.04640368 -0.9476613
vn 0.3158871 -0.04640368 0.9476613
vn 0.3044295 -0.270604 0.9132886
vn 0 1 0
vn 0 -1 0
vn 0 0 1
vn 0 0 -1
vn -0.9486833 0 -0.3162278
vn 0.9486833 0 0.3162278
vn -0.3148487 -0.0932885 -0.9445462
vn 0.3148487 0.0932885 0.9445462
vn 1 0 0
vn -1 0 0

vt 0.46875 0.125
vt 0.46875 0.175
vt 0.46875 0.225
vt 0.46875 0.025
vt 0.46875 0.075

usemtl colormap

f 3/2/3 2/1/2 1/1/1
f 2/1/2 3/2/3 4/2/4
f 1/1/7 2/1/6 3/2/5
f 4/2/8 3/2/5 2/1/6
f 3/2/3 6/3/10 5/3/9
f 6/3/10 3/2/3 7/2/11
f 5/3/13 6/3/12 3/2/5
f 7/2/14 3/2/5 6/3/12
f 10/4/17 9/5/16 8/4/15
f 9/5/16 10/4/17 11/5/18
f 8/4/21 9/5/20 10/4/19
f 11/5/22 10/4/19 9/5/20
f 8/4/15 13/5/24 12/4/23
f 13/5/24 8/4/15 9/5/16
f 12/4/26 13/5/25 8/4/21
f 9/5/20 8/4/21 13/5/25
f 5/3/27 15/3/27 14/3/27
f 15/3/27 5/3/27 6/3/27
f 14/3/28 15/3/28 5/3/28
f 6/3/28 5/3/28 15/3/28
f 16/4/29 11/5/29 10/4/29
f 11/5/29 16/4/29 15/3/29
f 11/5/29 15/3/29 17/1/29
f 17/1/29 15/3/29 7/2/29
f 7/2/29 15/3/29 6/3/29
f 10/4/30 11/5/30 16/4/30
f 15/3/30 16/4/30 11/5/30
f 17/1/30 15/3/30 11/5/30
f 7/2/30 15/3/30 17/1/30
f 6/3/30 15/3/30 7/2/30
f 9/5/16 17/1/31 1/1/1
f 17/1/31 9/5/16 11/5/18
f 1/1/7 17/1/32 9/5/20
f 11/5/22 9/5/20 17/1/32
f 5/3/9 4/2/4 3/2/3
f 4/2/4 5/3/9 14/3/33
f 3/2/5 4/2/8 5/3/13
f 14/3/34 5/3/13 4/2/8
f 1/1/1 13/5/24 9/5/16
f 13/5/24 1/1/1 2/1/2
f 9/5/20 13/5/25 1/1/7
f 2/1/6 1/1/7 13/5/25
f 10/4/28 12/4/28 16/4/28
f 12/4/28 10/4/28 8/4/28
f 16/4/27 12/4/27 10/4/27
f 8/4/27 10/4/27 12/4/27
f 15/3/35 4/2/35 14/3/35
f 4/2/35 15/3/35 13/5/35
f 13/5/35 2/1/35 4/2/35
f 16/4/35 13/5/35 15/3/35
f 13/5/35 16/4/35 12/4/35
f 14/3/36 4/2/36 15/3/36
f 13/5/36 15/3/36 4/2/36
f 4/2/36 2/1/36 13/5/36
f 15/3/36 13/5/36 16/4/36
f 12/4/36 16/4/36 13/5/36
f 17/1/31 3/2/3 1/1/1
f 3/2/3 17/1/31 7/2/11
f 1/1/7 3/2/5 17/1/32
f 7/2/14 17/1/32 3/2/5

g template-wall-corner




usemtl colormap

f 3/2/3 2/1/2 1/1/1
f 2/1/2 3/2/3 4/2/4
f 1/1/7 2/1/6 3/2/5
f 4/2/8 3/2/5 2/1/6
f 3/2/3 6/3/10 5/3/9
f 6/3/10 3/2/3 7/2/11
f 5/3/13 6/3/12 3/2/5
f 7/2/14 3/2/5 6/3/12
f 10/4/17 9/5/16 8/4/15
f 9/5/16 10/4/17 11/5/18
f 8/4/21 9/5/20 10/4/19
f 11/5/22 10/4/19 9/5/20
f 8/4/15 13/5/24 12/4/23
f 13/5/24 8/4/15 9/5/16
f 12/4/26 13/5/25 8/4/21
f 9/5/20 8/4/21 13/5/25
f 5/3/27 15/3/27 14/3/27
f 15/3/27 5/3/27 6/3/27
f 14/3/28 15/3/28 5/3/28
f 6/3/28 5/3/28 15/3/28
f 16/4/29 11/5/29 10/4/29
f 11/5/29 16/4/29 15/3/29
f 11/5/29 15/3/29 17/1/29
f 17/1/29 15/3/29 7/2/29
f 7/2/29 15/3/29 6/3/29
f 10/4/30 11/5/30 16/4/30
f 15/3/30 16/4/30 11/5/30
f 17/1/30 15/3/30 11/5/30
f 7/2/30 15/3/30 17/1/30
f 6/3/30 15/3/30 7/2/30
f 9/5/16 17/1/31 1/1/1
f 17/1/31 9/5/16 11/5/18
f 1/1/7 17/1/32 9/5/20
f 11/5/22 9/5/20 17/1/32
f 5/3/9 4/2/4 3/2/3
f 4/2/4 5/3/9 14/3/33
f 3/2/5 4/2/8 5/3/13
f 14/3/34 5/3/13 4/2/8
f 1/1/1 13/5/24 9/5/16
f 13/5/24 1/1/1 2/1/2
f 9/5/20 13/5/25 1/1/7
f 2/1/6 1/1/7 13/5/25
f 10/4/28 12/4/28 16/4/28
f 12/4/28 10/4/28 8/4/28
f 16/4/27 12/4/27 10/4/27
f 8/4/27 10/4/27 12/4/27
f 15/3/35 4/2/35 14/3/35
f 4/2/35 15/3/35 13/5/35
f 13/5/35 2/1/35 4/2/35
f 16/4/35 13/5/35 15/3/35
f 13/5/35 16/4/35 12/4/35
f 14/3/36 4/2/36 15/3/36
f 13/5/36 15/3/36 4/2/36
f 4/2/36 2/1/36 13/5/36
f 15/3/36 13/5/36 16/4/36
f 12/4/36 16/4/36 13/5/36
f 17/1/31 3/2/3 1/1/1
f 3/2/3 17/1/31 7/2/11
f 1/1/7 3/2/5 17/1/32
f 7/2/14 17/1/32 3/2/5

