# Created by Kenney (www.kenney.nl)

mtllib ladder.mtl

g ladder

v -0.3270244 0 0.071 1 1 1
v -0.3270244 0 -0.071 1 1 1
v -0.45 0 0.142 1 1 1
v -0.45 0 -0.142 1 1 1
v -0.5729756 0 0.071 1 1 1
v -0.5729756 0 -0.071 1 1 1
v -0.3270244 2.9 -0.071 1 1 1
v -0.3270244 2.9 0.071 1 1 1
v -0.45 2.9 -0.142 1 1 1
v -0.45 2.9 0.142 1 1 1
v -0.5729756 2.9 -0.071 1 1 1
v -0.5729756 2.9 0.071 1 1 1
v 0.5729756 0 0.071 1 1 1
v 0.5729756 0 -0.071 1 1 1
v 0.45 0 0.142 1 1 1
v 0.45 0 -0.142 1 1 1
v 0.3270244 0 0.071 1 1 1
v 0.3270244 0 -0.071 1 1 1
v 0.5729756 2.9 -0.071 1 1 1
v 0.5729756 2.9 0.071 1 1 1
v 0.45 2.9 -0.142 1 1 1
v 0.45 2.9 0.142 1 1 1
v 0.3270244 2.9 -0.071 1 1 1
v 0.3270244 2.9 0.071 1 1 1
v -0.3270244 1.379 -0.071 1 1 1
v 0.3270244 1.379 -0.071 1 1 1
v -0.3270244 1.521 -0.071 1 1 1
v 0.3270244 1.521 -0.071 1 1 1
v 0.3270244 1.379 0.071 1 1 1
v -0.3270244 1.379 0.071 1 1 1
v 0.3270244 1.521 0.071 1 1 1
v -0.3270244 1.521 0.071 1 1 1
v -0.3270244 1.979 -0.071 1 1 1
v 0.3270244 1.979 -0.071 1 1 1
v -0.3270244 2.121 -0.071 1 1 1
v 0.3270244 2.121 -0.071 1 1 1
v 0.3270244 1.979 0.071 1 1 1
v -0.3270244 1.979 0.071 1 1 1
v 0.3270244 2.121 0.071 1 1 1
v -0.3270244 2.121 0.071 1 1 1
v -0.3270244 0.779 -0.071 1 1 1
v 0.3270244 0.779 -0.071 1 1 1
v -0.3270244 0.9210001 -0.071 1 1 1
v 0.3270244 0.9210001 -0.071 1 1 1
v 0.3270244 0.779 0.071 1 1 1
v -0.3270244 0.779 0.071 1 1 1
v 0.3270244 0.9210001 0.071 1 1 1
v -0.3270244 0.9210001 0.071 1 1 1
v -0.3270244 2.579 -0.071 1 1 1
v 0.3270244 2.579 -0.071 1 1 1
v -0.3270244 2.721 -0.071 1 1 1
v 0.3270244 2.721 -0.071 1 1 1
v 0.3270244 2.579 0.071 1 1 1
v -0.3270244 2.579 0.071 1 1 1
v 0.3270244 2.721 0.071 1 1 1
v -0.3270244 2.721 0.071 1 1 1
v -0.3270244 0.179 -0.071 1 1 1
v 0.3270244 0.179 -0.071 1 1 1
v -0.3270244 0.321 -0.071 1 1 1
v 0.3270244 0.321 -0.071 1 1 1
v 0.3270244 0.179 0.071 1 1 1
v -0.3270244 0.179 0.071 1 1 1
v 0.3270244 0.321 0.071 1 1 1
v -0.3270244 0.321 0.071 1 1 1

vn 0 -1 0
vn 0 1 0
vn 0 0 -1
vn 0.8660254 0 -0.5
vn 0 0 1
vn -0.8660254 0 0.5
vn 0.8660254 0 0.5
vn -0.8660254 0 -0.5
vn 0 -0.7071068 -0.7071068
vn 0 0.7071068 -0.7071068
vn 0 -0.7071068 0.7071068
vn 0 0.7071068 0.7071068

vt 0.59375 0.025
vt 0.59375 0.225
vt 0.46875 0.025
vt 0.46875 0.225

usemtl colormap

f 3/1/1 2/1/1 1/1/1
f 2/1/1 3/1/1 4/1/1
f 4/1/1 3/1/1 5/1/1
f 4/1/1 5/1/1 6/1/1
f 1/1/2 2/1/2 3/1/2
f 4/1/2 3/1/2 2/1/2
f 5/1/2 3/1/2 4/1/2
f 6/1/2 5/1/2 4/1/2
f 9/2/2 8/2/2 7/2/2
f 8/2/2 9/2/2 10/2/2
f 10/2/2 9/2/2 11/2/2
f 10/2/2 11/2/2 12/2/2
f 7/2/1 8/2/1 9/2/1
f 10/2/1 9/2/1 8/2/1
f 11/2/1 9/2/1 10/2/1
f 12/2/1 11/2/1 10/2/1
f 9/2/3 2/1/4 4/1/3
f 2/1/4 9/2/3 7/2/4
f 4/1/5 2/1/6 9/2/5
f 7/2/6 9/2/5 2/1/6
f 8/2/7 2/1/4 7/2/4
f 2/1/4 8/2/7 1/1/7
f 7/2/6 2/1/6 8/2/8
f 1/1/8 8/2/8 2/1/6
f 11/2/8 4/1/3 6/1/8
f 4/1/3 11/2/8 9/2/3
f 6/1/7 4/1/5 11/2/7
f 9/2/5 11/2/7 4/1/5
f 8/2/7 3/1/5 1/1/7
f 3/1/5 8/2/7 10/2/5
f 1/1/8 3/1/3 8/2/8
f 10/2/3 8/2/8 3/1/3
f 10/2/5 5/1/6 3/1/5
f 5/1/6 10/2/5 12/2/6
f 3/1/3 5/1/4 10/2/3
f 12/2/4 10/2/3 5/1/4
f 5/1/6 11/2/8 6/1/8
f 11/2/8 5/1/6 12/2/6
f 6/1/7 11/2/7 5/1/4
f 12/2/4 5/1/4 11/2/7
f 15/1/1 14/1/1 13/1/1
f 14/1/1 15/1/1 16/1/1
f 16/1/1 15/1/1 17/1/1
f 16/1/1 17/1/1 18/1/1
f 13/1/2 14/1/2 15/1/2
f 16/1/2 15/1/2 14/1/2
f 17/1/2 15/1/2 16/1/2
f 18/1/2 17/1/2 16/1/2
f 21/2/2 20/2/2 19/2/2
f 20/2/2 21/2/2 22/2/2
f 22/2/2 21/2/2 23/2/2
f 22/2/2 23/2/2 24/2/2
f 19/2/1 20/2/1 21/2/1
f 22/2/1 21/2/1 20/2/1
f 23/2/1 21/2/1 22/2/1
f 24/2/1 23/2/1 22/2/1
f 21/2/3 14/1/4 16/1/3
f 14/1/4 21/2/3 19/2/4
f 16/1/5 14/1/6 21/2/5
f 19/2/6 21/2/5 14/1/6
f 20/2/7 14/1/4 19/2/4
f 14/1/4 20/2/7 13/1/7
f 19/2/6 14/1/6 20/2/8
f 13/1/8 20/2/8 14/1/6
f 23/2/8 16/1/3 18/1/8
f 16/1/3 23/2/8 21/2/3
f 18/1/7 16/1/5 23/2/7
f 21/2/5 23/2/7 16/1/5
f 20/2/7 15/1/5 13/1/7
f 15/1/5 20/2/7 22/2/5
f 13/1/8 15/1/3 20/2/8
f 22/2/3 20/2/8 15/1/3
f 22/2/5 17/1/6 15/1/5
f 17/1/6 22/2/5 24/2/6
f 15/1/3 17/1/4 22/2/3
f 24/2/4 22/2/3 17/1/4
f 17/1/6 23/2/8 18/1/8
f 23/2/8 17/1/6 24/2/6
f 18/1/7 23/2/7 17/1/4
f 24/2/4 17/1/4 23/2/7
f 27/4/10 26/3/9 25/3/9
f 26/3/9 27/4/10 28/4/10
f 25/3/12 26/3/12 27/4/11
f 28/4/11 27/4/11 26/3/12
f 30/3/11 26/3/9 29/3/11
f 26/3/9 30/3/11 25/3/9
f 29/3/10 26/3/12 30/3/10
f 25/3/12 30/3/10 26/3/12
f 31/4/12 30/3/11 29/3/11
f 30/3/11 31/4/12 32/4/12
f 29/3/10 30/3/10 31/4/9
f 32/4/9 31/4/9 30/3/10
f 27/4/10 31/4/12 28/4/10
f 31/4/12 27/4/10 32/4/12
f 28/4/11 31/4/9 27/4/11
f 32/4/9 27/4/11 31/4/9
f 35/4/10 34/3/9 33/3/9
f 34/3/9 35/4/10 36/4/10
f 33/3/12 34/3/12 35/4/11
f 36/4/11 35/4/11 34/3/12
f 38/3/11 34/3/9 37/3/11
f 34/3/9 38/3/11 33/3/9
f 37/3/10 34/3/12 38/3/10
f 33/3/12 38/3/10 34/3/12
f 39/4/12 38/3/11 37/3/11
f 38/3/11 39/4/12 40/4/12
f 37/3/10 38/3/10 39/4/9
f 40/4/9 39/4/9 38/3/10
f 35/4/10 39/4/12 36/4/10
f 39/4/12 35/4/10 40/4/12
f 36/4/11 39/4/9 35/4/11
f 40/4/9 35/4/11 39/4/9
f 43/4/10 42/3/9 41/3/9
f 42/3/9 43/4/10 44/4/10
f 41/3/12 42/3/12 43/4/11
f 44/4/11 43/4/11 42/3/12
f 46/3/11 42/3/9 45/3/11
f 42/3/9 46/3/11 41/3/9
f 45/3/10 42/3/12 46/3/10
f 41/3/12 46/3/10 42/3/12
f 47/4/12 46/3/11 45/3/11
f 46/3/11 47/4/12 48/4/12
f 45/3/10 46/3/10 47/4/9
f 48/4/9 47/4/9 46/3/10
f 43/4/10 47/4/12 44/4/10
f 47/4/12 43/4/10 48/4/12
f 44/4/11 47/4/9 43/4/11
f 48/4/9 43/4/11 47/4/9
f 51/4/10 50/3/9 49/3/9
f 50/3/9 51/4/10 52/4/10
f 49/3/12 50/3/12 51/4/11
f 52/4/11 51/4/11 50/3/12
f 54/3/11 50/3/9 53/3/11
f 50/3/9 54/3/11 49/3/9
f 53/3/10 50/3/12 54/3/10
f 49/3/12 54/3/10 50/3/12
f 55/4/12 54/3/11 53/3/11
f 54/3/11 55/4/12 56/4/12
f 53/3/10 54/3/10 55/4/9
f 56/4/9 55/4/9 54/3/10
f 51/4/10 55/4/12 52/4/10
f 55/4/12 51/4/10 56/4/12
f 52/4/11 55/4/9 51/4/11
f 56/4/9 51/4/11 55/4/9
f 59/4/10 58/3/9 57/3/9
f 58/3/9 59/4/10 60/4/10
f 57/3/12 58/3/12 59/4/11
f 60/4/11 59/4/11 58/3/12
f 62/3/11 58/3/9 61/3/11
f 58/3/9 62/3/11 57/3/9
f 61/3/10 58/3/12 62/3/10
f 57/3/12 62/3/10 58/3/12
f 63/4/12 62/3/11 61/3/11
f 62/3/11 63/4/12 64/4/12
f 61/3/10 62/3/10 63/4/9
f 64/4/9 63/4/9 62/3/10
f 59/4/10 63/4/12 60/4/10
f 63/4/12 59/4/10 64/4/12
f 60/4/11 63/4/9 59/4/11
f 64/4/9 59/4/11 63/4/9

g ladder




usemtl colormap

f 3/1/1 2/1/1 1/1/1
f 2/1/1 3/1/1 4/1/1
f 4/1/1 3/1/1 5/1/1
f 4/1/1 5/1/1 6/1/1
f 1/1/2 2/1/2 3/1/2
f 4/1/2 3/1/2 2/1/2
f 5/1/2 3/1/2 4/1/2
f 6/1/2 5/1/2 4/1/2
f 9/2/2 8/2/2 7/2/2
f 8/2/2 9/2/2 10/2/2
f 10/2/2 9/2/2 11/2/2
f 10/2/2 11/2/2 12/2/2
f 7/2/1 8/2/1 9/2/1
f 10/2/1 9/2/1 8/2/1
f 11/2/1 9/2/1 10/2/1
f 12/2/1 11/2/1 10/2/1
f 9/2/3 2/1/4 4/1/3
f 2/1/4 9/2/3 7/2/4
f 4/1/5 2/1/6 9/2/5
f 7/2/6 9/2/5 2/1/6
f 8/2/7 2/1/4 7/2/4
f 2/1/4 8/2/7 1/1/7
f 7/2/6 2/1/6 8/2/8
f 1/1/8 8/2/8 2/1/6
f 11/2/8 4/1/3 6/1/8
f 4/1/3 11/2/8 9/2/3
f 6/1/7 4/1/5 11/2/7
f 9/2/5 11/2/7 4/1/5
f 8/2/7 3/1/5 1/1/7
f 3/1/5 8/2/7 10/2/5
f 1/1/8 3/1/3 8/2/8
f 10/2/3 8/2/8 3/1/3
f 10/2/5 5/1/6 3/1/5
f 5/1/6 10/2/5 12/2/6
f 3/1/3 5/1/4 10/2/3
f 12/2/4 10/2/3 5/1/4
f 5/1/6 11/2/8 6/1/8
f 11/2/8 5/1/6 12/2/6
f 6/1/7 11/2/7 5/1/4
f 12/2/4 5/1/4 11/2/7
f 15/1/1 14/1/1 13/1/1
f 14/1/1 15/1/1 16/1/1
f 16/1/1 15/1/1 17/1/1
f 16/1/1 17/1/1 18/1/1
f 13/1/2 14/1/2 15/1/2
f 16/1/2 15/1/2 14/1/2
f 17/1/2 15/1/2 16/1/2
f 18/1/2 17/1/2 16/1/2
f 21/2/2 20/2/2 19/2/2
f 20/2/2 21/2/2 22/2/2
f 22/2/2 21/2/2 23/2/2
f 22/2/2 23/2/2 24/2/2
f 19/2/1 20/2/1 21/2/1
f 22/2/1 21/2/1 20/2/1
f 23/2/1 21/2/1 22/2/1
f 24/2/1 23/2/1 22/2/1
f 21/2/3 14/1/4 16/1/3
f 14/1/4 21/2/3 19/2/4
f 16/1/5 14/1/6 21/2/5
f 19/2/6 21/2/5 14/1/6
f 20/2/7 14/1/4 19/2/4
f 14/1/4 20/2/7 13/1/7
f 19/2/6 14/1/6 20/2/8
f 13/1/8 20/2/8 14/1/6
f 23/2/8 16/1/3 18/1/8
f 16/1/3 23/2/8 21/2/3
f 18/1/7 16/1/5 23/2/7
f 21/2/5 23/2/7 16/1/5
f 20/2/7 15/1/5 13/1/7
f 15/1/5 20/2/7 22/2/5
f 13/1/8 15/1/3 20/2/8
f 22/2/3 20/2/8 15/1/3
f 22/2/5 17/1/6 15/1/5
f 17/1/6 22/2/5 24/2/6
f 15/1/3 17/1/4 22/2/3
f 24/2/4 22/2/3 17/1/4
f 17/1/6 23/2/8 18/1/8
f 23/2/8 17/1/6 24/2/6
f 18/1/7 23/2/7 17/1/4
f 24/2/4 17/1/4 23/2/7
f 27/4/10 26/3/9 25/3/9
f 26/3/9 27/4/10 28/4/10
f 25/3/12 26/3/12 27/4/11
f 28/4/11 27/4/11 26/3/12
f 30/3/11 26/3/9 29/3/11
f 26/3/9 30/3/11 25/3/9
f 29/3/10 26/3/12 30/3/10
f 25/3/12 30/3/10 26/3/12
f 31/4/12 30/3/11 29/3/11
f 30/3/11 31/4/12 32/4/12
f 29/3/10 30/3/10 31/4/9
f 32/4/9 31/4/9 30/3/10
f 27/4/10 31/4/12 28/4/10
f 31/4/12 27/4/10 32/4/12
f 28/4/11 31/4/9 27/4/11
f 32/4/9 27/4/11 31/4/9
f 35/4/10 34/3/9 33/3/9
f 34/3/9 35/4/10 36/4/10
f 33/3/12 34/3/12 35/4/11
f 36/4/11 35/4/11 34/3/12
f 38/3/11 34/3/9 37/3/11
f 34/3/9 38/3/11 33/3/9
f 37/3/10 34/3/12 38/3/10
f 33/3/12 38/3/10 34/3/12
f 39/4/12 38/3/11 37/3/11
f 38/3/11 39/4/12 40/4/12
f 37/3/10 38/3/10 39/4/9
f 40/4/9 39/4/9 38/3/10
f 35/4/10 39/4/12 36/4/10
f 39/4/12 35/4/10 40/4/12
f 36/4/11 39/4/9 35/4/11
f 40/4/9 35/4/11 39/4/9
f 43/4/10 42/3/9 41/3/9
f 42/3/9 43/4/10 44/4/10
f 41/3/12 42/3/12 43/4/11
f 44/4/11 43/4/11 42/3/12
f 46/3/11 42/3/9 45/3/11
f 42/3/9 46/3/11 41/3/9
f 45/3/10 42/3/12 46/3/10
f 41/3/12 46/3/10 42/3/12
f 47/4/12 46/3/11 45/3/11
f 46/3/11 47/4/12 48/4/12
f 45/3/10 46/3/10 47/4/9
f 48/4/9 47/4/9 46/3/10
f 43/4/10 47/4/12 44/4/10
f 47/4/12 43/4/10 48/4/12
f 44/4/11 47/4/9 43/4/11
f 48/4/9 43/4/11 47/4/9
f 51/4/10 50/3/9 49/3/9
f 50/3/9 51/4/10 52/4/10
f 49/3/12 50/3/12 51/4/11
f 52/4/11 51/4/11 50/3/12
f 54/3/11 50/3/9 53/3/11
f 50/3/9 54/3/11 49/3/9
f 53/3/10 50/3/12 54/3/10
f 49/3/12 54/3/10 50/3/12
f 55/4/12 54/3/11 53/3/11
f 54/3/11 55/4/12 56/4/12
f 53/3/10 54/3/10 55/4/9
f 56/4/9 55/4/9 54/3/10
f 51/4/10 55/4/12 52/4/10
f 55/4/12 51/4/10 56/4/12
f 52/4/11 55/4/9 51/4/11
f 56/4/9 51/4/11 55/4/9
f 59/4/10 58/3/9 57/3/9
f 58/3/9 59/4/10 60/4/10
f 57/3/12 58/3/12 59/4/11
f 60/4/11 59/4/11 58/3/12
f 62/3/11 58/3/9 61/3/11
f 58/3/9 62/3/11 57/3/9
f 61/3/10 58/3/12 62/3/10
f 57/3/12 62/3/10 58/3/12
f 63/4/12 62/3/11 61/3/11
f 62/3/11 63/4/12 64/4/12
f 61/3/10 62/3/10 63/4/9
f 64/4/9 63/4/9 62/3/10
f 59/4/10 63/4/12 60/4/10
f 63/4/12 59/4/10 64/4/12
f 60/4/11 63/4/9 59/4/11
f 64/4/9 59/4/11 63/4/9

